M48
METRIC,LZ,000.000
;FILE_FORMAT=3:3
;TYPE=PLATED
;Layer: PTH_Through
;EasyEDA v6.5.57, 2026-08-20 12:42:06
;d8171c29410442e0b9ceb2c348f8487f,3ad32a43805b4f92aed64cbcf9809e57,10
;Gerber Generator version 0.2
;Holesize 1 = 0.310 mm
T01C0.310
;Holesize 2 = 0.501 mm
T02C0.501
;Holesize 3 = 0.889 mm
T03C0.889
%
G05
G90
T01
X017272Y021336
X021463Y021336
X014859Y040513
X014097Y039497
X008890Y037288
X008509Y018542
X009906Y036038
X009906Y039497
X013466Y042672
X016764Y042672
X027813Y041910
X012966Y043815
X017907Y043307
X026797Y043307
X012466Y049784
X016637Y049784
X012192Y048641
X012192Y046990
X014478Y012573
X015748Y045085
X016129Y033538
X018161Y032766
X025273Y008763
X014097Y034798
X016256Y036703
X018034Y036068
X028702Y032004
X024765Y030353
X023876Y050546
X024765Y053086
X019939Y045847
X026543Y049784
X029083Y022479
X029083Y030226
X032385Y025908
X032385Y015875
X031634Y055753
X019939Y026416
X025781Y045085
X011430Y040894
X014097Y023876
T02
X021463Y006350
X019463Y006350
X017463Y006350
X015463Y006350
X013463Y006350
X011463Y006350
X009463Y006350
X007463Y006350
T03
X037211Y008636
X034671Y008636
X037211Y011176
X034671Y011176
X037211Y013716
X034671Y013716
X037211Y016256
X034671Y016256
X037211Y018796
X034671Y018796
X037211Y021336
X034671Y021336
X037211Y023876
X034671Y023876
X037211Y026416
X034671Y026416
X037211Y028956
X034671Y028956
X037211Y031496
X034671Y031496
X037211Y034036
X034671Y034036
X037211Y036576
X034671Y036576
X037211Y039116
X034671Y039116
X037211Y041656
X034671Y041656
X037211Y044196
X034671Y044196
X037211Y046736
X034671Y046736
X037211Y049276
X034671Y049276
X037211Y051816
X034671Y051816
X037211Y054356
X034671Y054356
X037211Y056896
X034671Y056896
M30
