M48
METRIC,LZ,000.000
;FILE_FORMAT=3:3
;TYPE=PLATED
;Layer: PTH_Through_Via
;EasyEDA v6.5.57, 2026-08-20 12:42:06
;d8171c29410442e0b9ceb2c348f8487f,3ad32a43805b4f92aed64cbcf9809e57,10
;Gerber Generator version 0.2
;Holesize 1 = 0.310 mm
T01C0.310
%
G05
G90
T01
X017272Y021336
X021463Y021336
X014859Y040513
X014097Y039497
X008890Y037288
X008509Y018542
X009906Y036038
X009906Y039497
X013466Y042672
X016764Y042672
X027813Y041910
X012966Y043815
X017907Y043307
X026797Y043307
X012466Y049784
X016637Y049784
X012192Y048641
X012192Y046990
X014478Y012573
X015748Y045085
X016129Y033538
X018161Y032766
X025273Y008763
X014097Y034798
X016256Y036703
X018034Y036068
X028702Y032004
X024765Y030353
X023876Y050546
X024765Y053086
X019939Y045847
X026543Y049784
X029083Y022479
X029083Y030226
X032385Y025908
X032385Y015875
X031634Y055753
X019939Y026416
X025781Y045085
X011430Y040894
X014097Y023876
M30
