G04 Layer: BottomSolderMaskLayer*
G04 EasyEDA v6.5.57, 2026-08-20 12:42:06*
G04 d8171c29410442e0b9ceb2c348f8487f,3ad32a43805b4f92aed64cbcf9809e57,10*
G04 Gerber Generator version 0.2*
G04 Scale: 100 percent, Rotated: No, Reflected: No *
G04 Dimensions in millimeters *
G04 leading zeros omitted , absolute positions ,4 integer and 5 decimal *
%FSLAX45Y45*%
%MOMM*%

%AMMACRO1*4,1,8,-0.8085,-0.8382,-0.8382,-0.8082,-0.8382,0.8085,-0.8085,0.8382,0.8082,0.8382,0.8382,0.8085,0.8382,-0.8082,0.8082,-0.8382,-0.8085,-0.8382,0*%
%ADD10C,1.6256*%
%ADD11MACRO1*%
%ADD12C,1.6764*%
%ADD13C,0.0108*%

%LPD*%
D10*
G01*
X2146300Y635000D03*
G01*
X1946300Y635000D03*
G01*
X1746300Y635000D03*
G01*
X1546301Y635000D03*
G01*
X1346301Y635000D03*
G01*
X1146302Y635000D03*
G01*
X946302Y635000D03*
G01*
X746302Y635000D03*
D11*
G01*
X3721100Y863600D03*
D12*
G01*
X3467100Y863600D03*
G01*
X3721100Y1117600D03*
G01*
X3467100Y1117600D03*
G01*
X3721100Y1371600D03*
G01*
X3467100Y1371600D03*
G01*
X3721100Y1625600D03*
G01*
X3467100Y1625600D03*
G01*
X3721100Y1879600D03*
G01*
X3467100Y1879600D03*
G01*
X3721100Y2133600D03*
G01*
X3467100Y2133600D03*
G01*
X3721100Y2387600D03*
G01*
X3467100Y2387600D03*
G01*
X3721100Y2641600D03*
G01*
X3467100Y2641600D03*
G01*
X3721100Y2895600D03*
G01*
X3467100Y2895600D03*
G01*
X3721100Y3149600D03*
G01*
X3467100Y3149600D03*
G01*
X3721100Y3403600D03*
G01*
X3467100Y3403600D03*
G01*
X3721100Y3657600D03*
G01*
X3467100Y3657600D03*
G01*
X3721100Y3911600D03*
G01*
X3467100Y3911600D03*
G01*
X3721100Y4165600D03*
G01*
X3467100Y4165600D03*
G01*
X3721100Y4419600D03*
G01*
X3467100Y4419600D03*
G01*
X3721100Y4673600D03*
G01*
X3467100Y4673600D03*
G01*
X3721100Y4927600D03*
G01*
X3467100Y4927600D03*
G01*
X3721100Y5181600D03*
G01*
X3467100Y5181600D03*
G01*
X3721100Y5435600D03*
G01*
X3467100Y5435600D03*
G01*
X3721100Y5689600D03*
G01*
X3467100Y5689600D03*
M02*
