G04 Layer: TopSolderMaskLayer*
G04 EasyEDA v6.5.57, 2026-08-20 12:42:06*
G04 d8171c29410442e0b9ceb2c348f8487f,3ad32a43805b4f92aed64cbcf9809e57,10*
G04 Gerber Generator version 0.2*
G04 Scale: 100 percent, Rotated: No, Reflected: No *
G04 Dimensions in millimeters *
G04 leading zeros omitted , absolute positions ,4 integer and 5 decimal *
%FSLAX45Y45*%
%MOMM*%

%AMMACRO1*4,1,8,-0.8209,-0.45,-0.8501,-0.4205,-0.8501,0.4208,-0.8209,0.45,0.8207,0.45,0.8501,0.4208,0.8501,-0.4205,0.8207,-0.45,-0.8209,-0.45,0*%
%AMMACRO2*4,1,8,-0.8209,-0.4501,-0.8501,-0.4206,-0.8501,0.4209,-0.8209,0.4501,0.8207,0.4501,0.8501,0.4209,0.8501,-0.4206,0.8207,-0.4501,-0.8209,-0.4501,0*%
%AMMACRO3*4,1,8,-1.4209,-0.95,-1.4501,-0.9205,-1.4501,0.9208,-1.4209,0.95,1.4206,0.95,1.4501,0.9208,1.4501,-0.9205,1.4206,-0.95,-1.4209,-0.95,0*%
%AMMACRO4*4,1,8,-1.4209,-0.9501,-1.4501,-0.9206,-1.4501,0.9209,-1.4209,0.9501,1.4206,0.9501,1.4501,0.9209,1.4501,-0.9206,1.4206,-0.9501,-1.4209,-0.9501,0*%
%AMMACRO5*4,1,8,-0.4209,-0.9501,-0.4501,-0.9206,-0.4501,0.9209,-0.4209,0.9501,0.4206,0.9501,0.4501,0.9209,0.4501,-0.9206,0.4206,-0.9501,-0.4209,-0.9501,0*%
%AMMACRO6*4,1,8,-0.4208,-0.9501,-0.45,-0.9206,-0.45,0.9209,-0.4208,0.9501,0.4205,0.9501,0.45,0.9209,0.45,-0.9206,0.4205,-0.9501,-0.4208,-0.9501,0*%
%AMMACRO7*4,1,8,-0.9207,-1.5,-0.95,-1.4705,-0.95,1.4708,-0.9207,1.5,0.9205,1.5,0.95,1.4708,0.95,-1.4705,0.9205,-1.5,-0.9207,-1.5,0*%
%AMMACRO8*4,1,8,-0.9209,-1.5,-0.9501,-1.4705,-0.9501,1.4708,-0.9209,1.5,0.9206,1.5,0.9501,1.4708,0.9501,-1.4705,0.9206,-1.5,-0.9209,-1.5,0*%
%AMMACRO9*4,1,8,-0.8085,-0.8382,-0.8382,-0.8082,-0.8382,0.8085,-0.8085,0.8382,0.8082,0.8382,0.8382,0.8085,0.8382,-0.8082,0.8082,-0.8382,-0.8085,-0.8382,0*%
%ADD10C,1.6256*%
%ADD11MACRO1*%
%ADD12MACRO2*%
%ADD13MACRO3*%
%ADD14MACRO4*%
%ADD15MACRO5*%
%ADD16MACRO6*%
%ADD17C,0.0163*%
%ADD18MACRO7*%
%ADD19MACRO8*%
%ADD20MACRO9*%
%ADD21C,1.6764*%

%LPD*%
D10*
G01*
X2146300Y635000D03*
G01*
X1946300Y635000D03*
G01*
X1746300Y635000D03*
G01*
X1546301Y635000D03*
G01*
X1346301Y635000D03*
G01*
X1146302Y635000D03*
G01*
X946302Y635000D03*
G01*
X746302Y635000D03*
D11*
G01*
X701497Y3866502D03*
D12*
G01*
X701497Y3741496D03*
G01*
X701497Y3616502D03*
D11*
G01*
X701497Y3491496D03*
G01*
X701497Y3366503D03*
D12*
G01*
X701497Y3241497D03*
G01*
X701497Y3116503D03*
D11*
G01*
X701497Y2991497D03*
D13*
G01*
X441502Y4121505D03*
D14*
G01*
X441502Y2736507D03*
D15*
G01*
X734923Y6247904D03*
G01*
X859942Y6247904D03*
G01*
X984935Y6247904D03*
D16*
G01*
X1109941Y6247904D03*
D15*
G01*
X1234947Y6247904D03*
G01*
X1359941Y6247904D03*
G01*
X1484934Y6247904D03*
D16*
G01*
X1609940Y6247904D03*
D15*
G01*
X1734947Y6247904D03*
G01*
X1859940Y6247904D03*
G01*
X1984933Y6247904D03*
D16*
G01*
X2109939Y6247904D03*
D18*
G01*
X2364943Y6502895D03*
D19*
G01*
X479869Y6502895D03*
D20*
G01*
X3721100Y863600D03*
D21*
G01*
X3467100Y863600D03*
G01*
X3721100Y1117600D03*
G01*
X3467100Y1117600D03*
G01*
X3721100Y1371600D03*
G01*
X3467100Y1371600D03*
G01*
X3721100Y1625600D03*
G01*
X3467100Y1625600D03*
G01*
X3721100Y1879600D03*
G01*
X3467100Y1879600D03*
G01*
X3721100Y2133600D03*
G01*
X3467100Y2133600D03*
G01*
X3721100Y2387600D03*
G01*
X3467100Y2387600D03*
G01*
X3721100Y2641600D03*
G01*
X3467100Y2641600D03*
G01*
X3721100Y2895600D03*
G01*
X3467100Y2895600D03*
G01*
X3721100Y3149600D03*
G01*
X3467100Y3149600D03*
G01*
X3721100Y3403600D03*
G01*
X3467100Y3403600D03*
G01*
X3721100Y3657600D03*
G01*
X3467100Y3657600D03*
G01*
X3721100Y3911600D03*
G01*
X3467100Y3911600D03*
G01*
X3721100Y4165600D03*
G01*
X3467100Y4165600D03*
G01*
X3721100Y4419600D03*
G01*
X3467100Y4419600D03*
G01*
X3721100Y4673600D03*
G01*
X3467100Y4673600D03*
G01*
X3721100Y4927600D03*
G01*
X3467100Y4927600D03*
G01*
X3721100Y5181600D03*
G01*
X3467100Y5181600D03*
G01*
X3721100Y5435600D03*
G01*
X3467100Y5435600D03*
G01*
X3721100Y5689600D03*
G01*
X3467100Y5689600D03*
M02*
