G04 Layer: TopSilkscreenLayer*
G04 EasyEDA v6.5.57, 2026-08-20 12:42:06*
G04 d8171c29410442e0b9ceb2c348f8487f,3ad32a43805b4f92aed64cbcf9809e57,10*
G04 Gerber Generator version 0.2*
G04 Scale: 100 percent, Rotated: No, Reflected: No *
G04 Dimensions in millimeters *
G04 leading zeros omitted , absolute positions ,4 integer and 5 decimal *
%FSLAX45Y45*%
%MOMM*%

%ADD10C,0.1524*%
%ADD11C,0.1000*%
%ADD12C,0.2540*%
%ADD13C,0.2032*%
%ADD14C,0.0148*%

%LPD*%
D10*
X1959356Y357378D02*
G01*
X1969770Y346963D01*
X1985263Y341884D01*
X2006091Y341884D01*
X2021586Y346963D01*
X2032000Y357378D01*
X2032000Y367792D01*
X2026920Y378205D01*
X2021586Y383539D01*
X2011172Y388620D01*
X1979929Y399034D01*
X1969770Y404113D01*
X1964436Y409447D01*
X1959356Y419862D01*
X1959356Y435355D01*
X1969770Y445770D01*
X1985263Y450850D01*
X2006091Y450850D01*
X2021586Y445770D01*
X2032000Y435355D01*
X1925065Y341884D02*
G01*
X1925065Y450850D01*
X1925065Y341884D02*
G01*
X1878329Y341884D01*
X1862581Y346963D01*
X1857502Y352297D01*
X1852168Y362712D01*
X1852168Y378205D01*
X1857502Y388620D01*
X1862581Y393700D01*
X1878329Y399034D01*
X1925065Y399034D01*
X1817878Y341884D02*
G01*
X1817878Y450850D01*
X1817878Y341884D02*
G01*
X1750313Y341884D01*
X1817878Y393700D02*
G01*
X1776476Y393700D01*
X1817878Y450850D02*
G01*
X1750313Y450850D01*
X1674621Y341884D02*
G01*
X1716023Y450850D01*
X1674621Y341884D02*
G01*
X1632965Y450850D01*
X1700529Y414528D02*
G01*
X1648460Y414528D01*
X1598676Y341884D02*
G01*
X1598676Y450850D01*
X1526031Y341884D02*
G01*
X1598676Y414528D01*
X1572768Y388620D02*
G01*
X1526031Y450850D01*
X1491742Y341884D02*
G01*
X1491742Y450850D01*
X1491742Y341884D02*
G01*
X1424178Y341884D01*
X1491742Y393700D02*
G01*
X1450086Y393700D01*
X1491742Y450850D02*
G01*
X1424178Y450850D01*
X1389887Y341884D02*
G01*
X1389887Y450850D01*
X1389887Y341884D02*
G01*
X1343152Y341884D01*
X1327404Y346963D01*
X1322323Y352297D01*
X1316989Y362712D01*
X1316989Y373126D01*
X1322323Y383539D01*
X1327404Y388620D01*
X1343152Y393700D01*
X1389887Y393700D01*
X1353565Y393700D02*
G01*
X1316989Y450850D01*
X1282700Y487426D02*
G01*
X1189228Y487426D01*
X1113536Y341884D02*
G01*
X1154937Y450850D01*
X1113536Y341884D02*
G01*
X1071879Y450850D01*
X1139444Y414528D02*
G01*
X1087373Y414528D01*
X1037589Y341884D02*
G01*
X1037589Y450850D01*
X1037589Y341884D02*
G01*
X995934Y450850D01*
X954531Y341884D02*
G01*
X995934Y450850D01*
X954531Y341884D02*
G01*
X954531Y450850D01*
X920242Y341884D02*
G01*
X920242Y450850D01*
X920242Y341884D02*
G01*
X873505Y341884D01*
X857757Y346963D01*
X852678Y352297D01*
X847344Y362712D01*
X847344Y378205D01*
X852678Y388620D01*
X857757Y393700D01*
X873505Y399034D01*
X920242Y399034D01*
X420115Y5234178D02*
G01*
X311150Y5234178D01*
X420115Y5270500D02*
G01*
X420115Y5197855D01*
X420115Y5132323D02*
G01*
X415036Y5142737D01*
X404621Y5153152D01*
X394207Y5158231D01*
X378460Y5163565D01*
X352552Y5163565D01*
X337057Y5158231D01*
X326644Y5153152D01*
X316229Y5142737D01*
X311150Y5132323D01*
X311150Y5111495D01*
X316229Y5101081D01*
X326644Y5090668D01*
X337057Y5085587D01*
X352552Y5080254D01*
X378460Y5080254D01*
X394207Y5085587D01*
X404621Y5090668D01*
X415036Y5101081D01*
X420115Y5111495D01*
X420115Y5132323D01*
X274573Y5045963D02*
G01*
X274573Y4952492D01*
X404621Y4845557D02*
G01*
X415036Y4855971D01*
X420115Y4871465D01*
X420115Y4892294D01*
X415036Y4907787D01*
X404621Y4918202D01*
X394207Y4918202D01*
X383794Y4913121D01*
X378460Y4907787D01*
X373379Y4897373D01*
X362965Y4866386D01*
X357886Y4855971D01*
X352552Y4850637D01*
X342137Y4845557D01*
X326644Y4845557D01*
X316229Y4855971D01*
X311150Y4871465D01*
X311150Y4892294D01*
X316229Y4907787D01*
X326644Y4918202D01*
X394207Y4733289D02*
G01*
X404621Y4738370D01*
X415036Y4748784D01*
X420115Y4759197D01*
X420115Y4780026D01*
X415036Y4790439D01*
X404621Y4800854D01*
X394207Y4805934D01*
X378460Y4811268D01*
X352552Y4811268D01*
X337057Y4805934D01*
X326644Y4800854D01*
X316229Y4790439D01*
X311150Y4780026D01*
X311150Y4759197D01*
X316229Y4748784D01*
X326644Y4738370D01*
X337057Y4733289D01*
X420115Y4699000D02*
G01*
X311150Y4699000D01*
X420115Y4699000D02*
G01*
X420115Y4652263D01*
X415036Y4636770D01*
X409702Y4631436D01*
X399287Y4626355D01*
X388873Y4626355D01*
X378460Y4631436D01*
X373379Y4636770D01*
X368300Y4652263D01*
X368300Y4699000D01*
X368300Y4662678D02*
G01*
X311150Y4626355D01*
X420115Y4592065D02*
G01*
X311150Y4592065D01*
X420115Y4592065D02*
G01*
X420115Y4524502D01*
X368300Y4592065D02*
G01*
X368300Y4550410D01*
X311150Y4592065D02*
G01*
X311150Y4524502D01*
X420115Y4490212D02*
G01*
X311150Y4490212D01*
X420115Y4490212D02*
G01*
X420115Y4422647D01*
X368300Y4490212D02*
G01*
X368300Y4448555D01*
X311150Y4490212D02*
G01*
X311150Y4422647D01*
X420115Y4388357D02*
G01*
X311150Y4388357D01*
X420115Y4388357D02*
G01*
X311150Y4315460D01*
X420115Y4315460D02*
G01*
X311150Y4315460D01*
X1400517Y5992888D02*
G01*
X1400517Y6101854D01*
X1436839Y5992888D02*
G01*
X1364195Y5992888D01*
X1298663Y5992888D02*
G01*
X1309077Y5997968D01*
X1319491Y6008382D01*
X1324571Y6018796D01*
X1329905Y6034544D01*
X1329905Y6060452D01*
X1324571Y6075946D01*
X1319491Y6086360D01*
X1309077Y6096774D01*
X1298663Y6101854D01*
X1277835Y6101854D01*
X1267421Y6096774D01*
X1257007Y6086360D01*
X1251927Y6075946D01*
X1246593Y6060452D01*
X1246593Y6034544D01*
X1251927Y6018796D01*
X1257007Y6008382D01*
X1267421Y5997968D01*
X1277835Y5992888D01*
X1298663Y5992888D01*
X1212303Y6138430D02*
G01*
X1118831Y6138430D01*
X1084541Y5992888D02*
G01*
X1084541Y6101854D01*
X1084541Y5992888D02*
G01*
X1037805Y5992888D01*
X1022311Y5997968D01*
X1016977Y6003302D01*
X1011897Y6013716D01*
X1011897Y6024130D01*
X1016977Y6034544D01*
X1022311Y6039624D01*
X1037805Y6044704D01*
X1084541Y6044704D01*
X1048219Y6044704D02*
G01*
X1011897Y6101854D01*
X977607Y5992888D02*
G01*
X977607Y6101854D01*
X977607Y5992888D02*
G01*
X910043Y5992888D01*
X977607Y6044704D02*
G01*
X935951Y6044704D01*
X977607Y6101854D02*
G01*
X910043Y6101854D01*
X803109Y6008382D02*
G01*
X813269Y5997968D01*
X829017Y5992888D01*
X849845Y5992888D01*
X865339Y5997968D01*
X875753Y6008382D01*
X875753Y6018796D01*
X870419Y6029210D01*
X865339Y6034544D01*
X854925Y6039624D01*
X823683Y6050038D01*
X813269Y6055118D01*
X808189Y6060452D01*
X803109Y6070866D01*
X803109Y6086360D01*
X813269Y6096774D01*
X829017Y6101854D01*
X849845Y6101854D01*
X865339Y6096774D01*
X875753Y6086360D01*
X768819Y5992888D02*
G01*
X768819Y6101854D01*
X768819Y5992888D02*
G01*
X721829Y5992888D01*
X706335Y5997968D01*
X701255Y6003302D01*
X695921Y6013716D01*
X695921Y6029210D01*
X701255Y6039624D01*
X706335Y6044704D01*
X721829Y6050038D01*
X768819Y6050038D01*
X661631Y5992888D02*
G01*
X661631Y6101854D01*
X661631Y5992888D02*
G01*
X594067Y5992888D01*
X661631Y6044704D02*
G01*
X620229Y6044704D01*
X661631Y6101854D02*
G01*
X594067Y6101854D01*
X518375Y5992888D02*
G01*
X559777Y6101854D01*
X518375Y5992888D02*
G01*
X476719Y6101854D01*
X544283Y6065532D02*
G01*
X492213Y6065532D01*
X442429Y5992888D02*
G01*
X442429Y6101854D01*
X369785Y5992888D02*
G01*
X442429Y6065532D01*
X416521Y6039624D02*
G01*
X369785Y6101854D01*
X335495Y5992888D02*
G01*
X335495Y6101854D01*
X335495Y5992888D02*
G01*
X267931Y5992888D01*
X335495Y6044704D02*
G01*
X293839Y6044704D01*
X335495Y6101854D02*
G01*
X267931Y6101854D01*
X233641Y5992888D02*
G01*
X233641Y6101854D01*
X233641Y5992888D02*
G01*
X186905Y5992888D01*
X171157Y5997968D01*
X166077Y6003302D01*
X160743Y6013716D01*
X160743Y6024130D01*
X166077Y6034544D01*
X171157Y6039624D01*
X186905Y6044704D01*
X233641Y6044704D01*
X197319Y6044704D02*
G01*
X160743Y6101854D01*
X3199384Y3276600D02*
G01*
X3308350Y3276600D01*
X3199384Y3276600D02*
G01*
X3199384Y3323336D01*
X3204463Y3338829D01*
X3209797Y3344163D01*
X3220211Y3349244D01*
X3230625Y3349244D01*
X3241040Y3344163D01*
X3246120Y3338829D01*
X3251200Y3323336D01*
X3251200Y3276600D01*
X3251200Y3312921D02*
G01*
X3308350Y3349244D01*
X3199384Y3383534D02*
G01*
X3308350Y3383534D01*
X3199384Y3383534D02*
G01*
X3199384Y3430270D01*
X3204463Y3446018D01*
X3209797Y3451097D01*
X3220211Y3456431D01*
X3235706Y3456431D01*
X3246120Y3451097D01*
X3251200Y3446018D01*
X3256534Y3430270D01*
X3256534Y3383534D01*
X3199384Y3490721D02*
G01*
X3308350Y3490721D01*
X3344925Y3525012D02*
G01*
X3344925Y3618484D01*
X3199384Y3652773D02*
G01*
X3308350Y3652773D01*
X3199384Y3725418D02*
G01*
X3308350Y3725418D01*
X3251200Y3652773D02*
G01*
X3251200Y3725418D01*
X3199384Y3759707D02*
G01*
X3308350Y3759707D01*
X3199384Y3759707D02*
G01*
X3199384Y3827271D01*
X3251200Y3759707D02*
G01*
X3251200Y3801363D01*
X3308350Y3759707D02*
G01*
X3308350Y3827271D01*
X3199384Y3903218D02*
G01*
X3308350Y3861562D01*
X3199384Y3903218D02*
G01*
X3308350Y3944620D01*
X3272027Y3877310D02*
G01*
X3272027Y3929126D01*
X3199384Y3978910D02*
G01*
X3308350Y3978910D01*
X3199384Y3978910D02*
G01*
X3199384Y4015486D01*
X3204463Y4030979D01*
X3214877Y4041394D01*
X3225291Y4046473D01*
X3241040Y4051807D01*
X3266947Y4051807D01*
X3282441Y4046473D01*
X3292856Y4041394D01*
X3303270Y4030979D01*
X3308350Y4015486D01*
X3308350Y3978910D01*
X3199384Y4086097D02*
G01*
X3308350Y4086097D01*
X3199384Y4086097D02*
G01*
X3199384Y4153662D01*
X3251200Y4086097D02*
G01*
X3251200Y4127500D01*
X3308350Y4086097D02*
G01*
X3308350Y4153662D01*
X3199384Y4187952D02*
G01*
X3308350Y4187952D01*
X3199384Y4187952D02*
G01*
X3199384Y4234687D01*
X3204463Y4250181D01*
X3209797Y4255515D01*
X3220211Y4260595D01*
X3230625Y4260595D01*
X3241040Y4255515D01*
X3246120Y4250181D01*
X3251200Y4234687D01*
X3251200Y4187952D01*
X3251200Y4224273D02*
G01*
X3308350Y4260595D01*
G36*
X2187448Y6242812D02*
G01*
X2225548Y6192012D01*
X2263648Y6242812D01*
G37*
D11*
X647700Y736600D02*
G01*
X647700Y533400D01*
X2247900Y533400D01*
X2247900Y736600D01*
X647700Y736600D01*
D12*
X604611Y4179999D02*
G01*
X610499Y4179999D01*
X610499Y4040997D01*
X694499Y4040997D01*
X694499Y3930997D01*
X278384Y2682001D02*
G01*
X231500Y2682001D01*
X231500Y4179999D01*
X278384Y4179999D01*
X710498Y2918000D02*
G01*
X710498Y2823999D01*
X615500Y2823999D01*
X605500Y2813999D01*
X605500Y2682001D01*
X604611Y2682001D01*
X2450045Y6755904D02*
G01*
X394700Y6755904D01*
X394883Y6755904D02*
G01*
X394883Y6671015D01*
X394665Y6334787D02*
G01*
X394665Y6286004D01*
X671753Y6286004D01*
X2450045Y6755904D02*
G01*
X2450045Y6671015D01*
X2173053Y6286004D02*
G01*
X2450139Y6286004D01*
X2450139Y6334787D01*
D13*
X3340100Y736600D02*
G01*
X3848100Y736600D01*
X3848100Y5816600D01*
X3340100Y5816600D01*
X3340100Y736600D01*
D12*
G75*
G01
X764591Y3974973D02*
G03X764591Y3974973I-20091J0D01*
M02*
