M48
INCH,LZ
;FILE_FORMAT=2:4
;TYPE=PLATED
;Layer: PTH_Through
;EasyEDA v6.5.57, 2026-08-20 12:42:06
;3863881593864a92abf5d593ca69eb64,3ad32a43805b4f92aed64cbcf9809e57,10
;Gerber Generator version 0.2
;Holesize 1 = 0.0120 inch
T01C0.0120
;Holesize 2 = 0.0350 inch
T02C0.0350
%
G05
G90
T01
X032100Y038550
X018700Y038700
X031200Y040150
X030950Y039900
X015200Y039900
X030750Y039650
X022200Y039650
X030550Y039400
X024200Y039400
X031550Y039850
X016150Y039250
X030250Y039150
X031565Y035850
X016150Y036500
X030050Y038800
T02
X013200Y041050
X013200Y042050
X014200Y041050
X014200Y042050
X015200Y041050
X015200Y042050
X016200Y041050
X016200Y042050
X017200Y041050
X017200Y042050
X018200Y041050
X018200Y042050
X019200Y041050
X019200Y042050
X020200Y041050
X020200Y042050
X021200Y041050
X021200Y042050
X022200Y041050
X022200Y042050
X023200Y041050
X023200Y042050
X024200Y041050
X024200Y042050
X025200Y041050
X025200Y042050
X026200Y041050
X026200Y042050
X027200Y041050
X027200Y042050
X028200Y041050
X028200Y042050
X029200Y041050
X029200Y042050
X030200Y041050
X030200Y042050
X031200Y041050
X031200Y042050
X032200Y041050
X032200Y042050
M30
