G04 Layer: TopSolderMaskLayer*
G04 EasyEDA v6.5.57, 2026-08-20 12:42:06*
G04 3863881593864a92abf5d593ca69eb64,3ad32a43805b4f92aed64cbcf9809e57,10*
G04 Gerber Generator version 0.2*
G04 Scale: 100 percent, Rotated: No, Reflected: No *
G04 Dimensions in inches *
G04 leading zeros omitted , absolute positions ,3 integer and 6 decimal *
%FSLAX36Y36*%
%MOIN*%

%AMMACRO1*4,1,8,-0.0323,-0.0177,-0.0335,-0.0166,-0.0335,0.0166,-0.0323,0.0177,0.0323,0.0177,0.0335,0.0166,0.0335,-0.0166,0.0323,-0.0177,-0.0323,-0.0177,0*%
%AMMACRO2*4,1,8,-0.0559,-0.0374,-0.0571,-0.0362,-0.0571,0.0363,-0.0559,0.0374,0.0559,0.0374,0.0571,0.0363,0.0571,-0.0362,0.0559,-0.0374,-0.0559,-0.0374,0*%
%AMMACRO3*4,1,8,-0.0166,-0.0374,-0.0177,-0.0362,-0.0177,0.0363,-0.0166,0.0374,0.0166,0.0374,0.0177,0.0363,0.0177,-0.0362,0.0166,-0.0374,-0.0166,-0.0374,0*%
%AMMACRO4*4,1,8,-0.0362,-0.0591,-0.0374,-0.0579,-0.0374,0.0579,-0.0362,0.0591,0.0362,0.0591,0.0374,0.0579,0.0374,-0.0579,0.0362,-0.0591,-0.0362,-0.0591,0*%
%AMMACRO5*4,1,8,-0.0363,-0.0591,-0.0374,-0.0579,-0.0374,0.0579,-0.0363,0.0591,0.0362,0.0591,0.0374,0.0579,0.0374,-0.0579,0.0362,-0.0591,-0.0363,-0.0591,0*%
%AMMACRO6*4,1,8,-0.0318,-0.033,-0.033,-0.0318,-0.033,0.0318,-0.0318,0.033,0.0318,0.033,0.033,0.0318,0.033,-0.0318,0.0318,-0.033,-0.0318,-0.033,0*%
%ADD10MACRO1*%
%ADD11MACRO2*%
%ADD12MACRO3*%
%ADD13MACRO4*%
%ADD14MACRO5*%
%ADD15C,0.0115*%
%ADD16MACRO6*%
%ADD17C,0.0660*%

%LPD*%
D10*
G01*
X1516179Y3747245D03*
G01*
X1516179Y3698029D03*
G01*
X1516179Y3648820D03*
G01*
X1516179Y3599604D03*
G01*
X1516179Y3550395D03*
G01*
X1516179Y3501179D03*
G01*
X1516179Y3451970D03*
G01*
X1516179Y3402754D03*
D11*
G01*
X1413820Y3847639D03*
G01*
X1413820Y3302365D03*
D12*
G01*
X3205659Y3495195D03*
G01*
X3156440Y3495195D03*
G01*
X3107229Y3495195D03*
G01*
X3058015Y3495195D03*
G01*
X3008805Y3495195D03*
G01*
X2959589Y3495195D03*
G01*
X2910380Y3495195D03*
G01*
X2861165Y3495195D03*
G01*
X2811954Y3495195D03*
G01*
X2762740Y3495195D03*
G01*
X2713530Y3495195D03*
G01*
X2664315Y3495195D03*
D13*
G01*
X2563919Y3394804D03*
D14*
G01*
X3306075Y3394804D03*
D16*
G01*
X1320000Y4105000D03*
D17*
G01*
X1320000Y4205000D03*
G01*
X1420000Y4105000D03*
G01*
X1420000Y4205000D03*
G01*
X1520000Y4105000D03*
G01*
X1520000Y4205000D03*
G01*
X1620000Y4105000D03*
G01*
X1620000Y4205000D03*
G01*
X1720000Y4105000D03*
G01*
X1720000Y4205000D03*
G01*
X1820000Y4105000D03*
G01*
X1820000Y4205000D03*
G01*
X1920000Y4105000D03*
G01*
X1920000Y4205000D03*
G01*
X2020000Y4105000D03*
G01*
X2020000Y4205000D03*
G01*
X2120000Y4105000D03*
G01*
X2120000Y4205000D03*
G01*
X2220000Y4105000D03*
G01*
X2220000Y4205000D03*
G01*
X2320000Y4105000D03*
G01*
X2320000Y4205000D03*
G01*
X2420000Y4105000D03*
G01*
X2420000Y4205000D03*
G01*
X2520000Y4105000D03*
G01*
X2520000Y4205000D03*
G01*
X2620000Y4105000D03*
G01*
X2620000Y4205000D03*
G01*
X2720000Y4105000D03*
G01*
X2720000Y4205000D03*
G01*
X2820000Y4105000D03*
G01*
X2820000Y4205000D03*
G01*
X2920000Y4105000D03*
G01*
X2920000Y4205000D03*
G01*
X3020000Y4105000D03*
G01*
X3020000Y4205000D03*
G01*
X3120000Y4105000D03*
G01*
X3120000Y4205000D03*
G01*
X3220000Y4105000D03*
G01*
X3220000Y4205000D03*
M02*
