G04 Layer: TopLayer*
G04 EasyEDA v6.5.57, 2026-08-20 12:42:06*
G04 3863881593864a92abf5d593ca69eb64,3ad32a43805b4f92aed64cbcf9809e57,10*
G04 Gerber Generator version 0.2*
G04 Scale: 100 percent, Rotated: No, Reflected: No *
G04 Dimensions in inches *
G04 leading zeros omitted , absolute positions ,3 integer and 6 decimal *
%FSLAX36Y36*%
%MOIN*%

%ADD10C,0.0100*%
%ADD11R,0.0630X0.0315*%
%ADD12R,0.1102X0.0709*%
%ADD13R,0.0315X0.0709*%
%ADD14R,0.0709X0.1142*%
%ADD15R,0.0620X0.0620*%
%ADD16C,0.0620*%
%ADD17C,0.0244*%
%ADD18C,0.0127*%

%LPD*%
D10*
X1516199Y3599600D02*
G01*
X1710000Y3600000D01*
X1760000Y3550399D01*
X1516180Y3550394D02*
G01*
X2609115Y3550394D01*
X2664314Y3495194D01*
X1516180Y3747244D02*
G01*
X1615000Y3747244D01*
X1615000Y3925000D01*
X1615000Y3650000D02*
G01*
X1613824Y3648825D01*
X1516180Y3648825D01*
X3156445Y3495194D02*
G01*
X3156445Y3585000D01*
X3210000Y3855000D02*
G01*
X3210000Y3849569D01*
X3178578Y3818148D01*
X3178578Y3688578D01*
X3107224Y3617224D01*
X3107224Y3495194D01*
X3020000Y4105000D02*
G01*
X3055000Y4070000D01*
X3055000Y4040000D01*
X3130000Y4040000D01*
X3180000Y4005000D01*
X3180000Y3930000D01*
X3158900Y3908899D01*
X3158900Y3708899D01*
X3080000Y3630000D01*
X3060000Y3630000D01*
X3058000Y3495200D01*
X3025000Y3915000D02*
G01*
X3040799Y3899200D01*
X3040799Y3800799D01*
X3015000Y3775000D01*
X2762700Y3772300D01*
X2762700Y3495200D01*
X3119499Y4015000D02*
G01*
X3119499Y3734499D01*
X3060000Y3675000D01*
X2960000Y3675000D01*
X2959600Y3495200D01*
X3155000Y3985000D02*
G01*
X3155000Y3935000D01*
X3139200Y3920000D01*
X3139200Y3719200D01*
X3070000Y3650000D01*
X3005000Y3650000D01*
X3008800Y3495200D01*
X3099799Y3990000D02*
G01*
X3099799Y3749800D01*
X3045000Y3695000D01*
X2910399Y3694600D01*
X2910399Y3495200D01*
X3080000Y3765000D02*
G01*
X3035000Y3720000D01*
X2860000Y3720000D01*
X2861165Y3718834D01*
X2861165Y3495194D01*
X3080150Y3818148D02*
G01*
X3080000Y3765000D01*
X3080000Y3965000D01*
X3060000Y3945000D02*
G01*
X3060000Y3785000D01*
X3020000Y3745000D01*
X2811999Y3743000D01*
X2811999Y3495200D01*
X2970000Y4150000D02*
G01*
X2970000Y3833299D01*
X2665000Y3835000D01*
X2664300Y3495200D01*
X1320000Y3925000D02*
G01*
X1320000Y4105000D01*
X1615000Y3925000D02*
G01*
X1320000Y3925000D01*
X2920000Y4205000D02*
G01*
X2975000Y4150000D01*
X3150000Y4150000D01*
X3185000Y4140000D01*
X3220000Y4105000D01*
X2420000Y3940000D02*
G01*
X2420000Y4105000D01*
X2220000Y3965000D02*
G01*
X2220000Y4105000D01*
X1520000Y3990000D02*
G01*
X1520000Y4105000D01*
X1870000Y3870000D02*
G01*
X1870000Y4155000D01*
X1820000Y4205000D01*
X3005000Y3880000D02*
G01*
X3005000Y3835000D01*
X2971499Y3801500D01*
X2713500Y3801500D01*
X2713500Y3495200D01*
D11*
G01*
X1516180Y3747249D03*
G01*
X1516180Y3698029D03*
G01*
X1516180Y3648820D03*
G01*
X1516180Y3599609D03*
G01*
X1516180Y3550390D03*
G01*
X1516180Y3501179D03*
G01*
X1516180Y3451970D03*
G01*
X1516180Y3402759D03*
D12*
G01*
X1413819Y3847640D03*
G01*
X1413819Y3302359D03*
D13*
G01*
X3205659Y3495200D03*
G01*
X3156440Y3495200D03*
G01*
X3107229Y3495200D03*
G01*
X3058019Y3495200D03*
G01*
X3008800Y3495200D03*
G01*
X2959589Y3495200D03*
G01*
X2910379Y3495200D03*
G01*
X2861170Y3495200D03*
G01*
X2811949Y3495200D03*
G01*
X2762740Y3495200D03*
G01*
X2713530Y3495200D03*
G01*
X2664319Y3495200D03*
D14*
G01*
X2563919Y3394800D03*
G01*
X3306080Y3394800D03*
D15*
G01*
X1320000Y4105000D03*
D16*
G01*
X1320000Y4205000D03*
G01*
X1420000Y4105000D03*
G01*
X1420000Y4205000D03*
G01*
X1520000Y4105000D03*
G01*
X1520000Y4205000D03*
G01*
X1620000Y4105000D03*
G01*
X1620000Y4205000D03*
G01*
X1720000Y4105000D03*
G01*
X1720000Y4205000D03*
G01*
X1820000Y4105000D03*
G01*
X1820000Y4205000D03*
G01*
X1920000Y4105000D03*
G01*
X1920000Y4205000D03*
G01*
X2020000Y4105000D03*
G01*
X2020000Y4205000D03*
G01*
X2120000Y4105000D03*
G01*
X2120000Y4205000D03*
G01*
X2220000Y4105000D03*
G01*
X2220000Y4205000D03*
G01*
X2320000Y4105000D03*
G01*
X2320000Y4205000D03*
G01*
X2420000Y4105000D03*
G01*
X2420000Y4205000D03*
G01*
X2520000Y4105000D03*
G01*
X2520000Y4205000D03*
G01*
X2620000Y4105000D03*
G01*
X2620000Y4205000D03*
G01*
X2720000Y4105000D03*
G01*
X2720000Y4205000D03*
G01*
X2820000Y4105000D03*
G01*
X2820000Y4205000D03*
G01*
X2920000Y4105000D03*
G01*
X2920000Y4205000D03*
G01*
X3020000Y4105000D03*
G01*
X3020000Y4205000D03*
G01*
X3120000Y4105000D03*
G01*
X3120000Y4205000D03*
G01*
X3220000Y4105000D03*
G01*
X3220000Y4205000D03*
D17*
G01*
X3210000Y3855000D03*
G01*
X1870000Y3870000D03*
G01*
X3120000Y4015000D03*
G01*
X3095000Y3990000D03*
G01*
X1520000Y3990000D03*
G01*
X3075000Y3965000D03*
G01*
X2220000Y3965000D03*
G01*
X3055000Y3940000D03*
G01*
X2420000Y3940000D03*
G01*
X3155000Y3985000D03*
G01*
X1615000Y3925000D03*
G01*
X3025000Y3915000D03*
G01*
X3156450Y3585000D03*
G01*
X1615000Y3650000D03*
G01*
X3005000Y3880000D03*
M02*
