G04 Layer: TopSilkscreenLayer*
G04 EasyEDA v6.5.57, 2026-08-20 12:42:06*
G04 3863881593864a92abf5d593ca69eb64,3ad32a43805b4f92aed64cbcf9809e57,10*
G04 Gerber Generator version 0.2*
G04 Scale: 100 percent, Rotated: No, Reflected: No *
G04 Dimensions in inches *
G04 leading zeros omitted , absolute positions ,3 integer and 6 decimal *
%FSLAX36Y36*%
%MOIN*%

%ADD10C,0.0060*%
%ADD11C,0.0100*%
%ADD12C,0.0080*%
%ADD13C,0.0129*%

%LPD*%
D10*
X1440399Y3760700D02*
G01*
X1397500Y3760700D01*
X1440399Y3775000D02*
G01*
X1440399Y3746399D01*
X1440399Y3720599D02*
G01*
X1438400Y3724699D01*
X1434300Y3728800D01*
X1430200Y3730799D01*
X1423999Y3732899D01*
X1413800Y3732899D01*
X1407700Y3730799D01*
X1403599Y3728800D01*
X1399499Y3724699D01*
X1397500Y3720599D01*
X1397500Y3712399D01*
X1399499Y3708299D01*
X1403599Y3704200D01*
X1407700Y3702199D01*
X1413800Y3700100D01*
X1423999Y3700100D01*
X1430200Y3702199D01*
X1434300Y3704200D01*
X1438400Y3708299D01*
X1440399Y3712399D01*
X1440399Y3720599D01*
X1383100Y3686599D02*
G01*
X1383100Y3649800D01*
X1440399Y3636300D02*
G01*
X1397500Y3636300D01*
X1440399Y3636300D02*
G01*
X1440399Y3617899D01*
X1438400Y3611799D01*
X1436300Y3609699D01*
X1432200Y3607700D01*
X1428100Y3607700D01*
X1423999Y3609699D01*
X1421999Y3611799D01*
X1420000Y3617899D01*
X1420000Y3636300D02*
G01*
X1420000Y3617899D01*
X1417899Y3611799D01*
X1415900Y3609699D01*
X1411800Y3607700D01*
X1405600Y3607700D01*
X1401499Y3609699D01*
X1399499Y3611799D01*
X1397500Y3617899D01*
X1397500Y3636300D01*
X1440399Y3594200D02*
G01*
X1409700Y3594200D01*
X1403599Y3592100D01*
X1399499Y3588000D01*
X1397500Y3581900D01*
X1397500Y3577800D01*
X1399499Y3571700D01*
X1403599Y3567600D01*
X1409700Y3565500D01*
X1440399Y3565500D01*
X1440399Y3537700D02*
G01*
X1397500Y3537700D01*
X1440399Y3551999D02*
G01*
X1440399Y3523400D01*
X1440399Y3495599D02*
G01*
X1397500Y3495599D01*
X1440399Y3509899D02*
G01*
X1440399Y3481300D01*
X1440399Y3455500D02*
G01*
X1438400Y3459600D01*
X1434300Y3463699D01*
X1430200Y3465700D01*
X1423999Y3467800D01*
X1413800Y3467800D01*
X1407700Y3465700D01*
X1403599Y3463699D01*
X1399499Y3459600D01*
X1397500Y3455500D01*
X1397500Y3447300D01*
X1399499Y3443200D01*
X1403599Y3439099D01*
X1407700Y3437100D01*
X1413800Y3435000D01*
X1423999Y3435000D01*
X1430200Y3437100D01*
X1434300Y3439099D01*
X1438400Y3443200D01*
X1440399Y3447300D01*
X1440399Y3455500D01*
X1440399Y3421500D02*
G01*
X1397500Y3421500D01*
X1440399Y3421500D02*
G01*
X1397500Y3392899D01*
X1440399Y3392899D02*
G01*
X1397500Y3392899D01*
X2849295Y3380405D02*
G01*
X2849295Y3337505D01*
X2834994Y3380405D02*
G01*
X2863594Y3380405D01*
X2889395Y3380405D02*
G01*
X2885294Y3378404D01*
X2881194Y3374304D01*
X2879194Y3370205D01*
X2877094Y3364005D01*
X2877094Y3353805D01*
X2879194Y3347705D01*
X2881194Y3343604D01*
X2885294Y3339504D01*
X2889395Y3337505D01*
X2897595Y3337505D01*
X2901694Y3339504D01*
X2905794Y3343604D01*
X2907794Y3347705D01*
X2909894Y3353805D01*
X2909894Y3364005D01*
X2907794Y3370205D01*
X2905794Y3374304D01*
X2901694Y3378404D01*
X2897595Y3380405D01*
X2889395Y3380405D01*
X2923395Y3323105D02*
G01*
X2960195Y3323105D01*
X2973694Y3380405D02*
G01*
X2973694Y3337505D01*
X2973694Y3380405D02*
G01*
X2992094Y3380405D01*
X2998194Y3378404D01*
X3000294Y3376305D01*
X3002295Y3372204D01*
X3002295Y3368105D01*
X3000294Y3364005D01*
X2998194Y3362004D01*
X2992094Y3360005D01*
X2973694Y3360005D01*
X2987995Y3360005D02*
G01*
X3002295Y3337505D01*
X3015794Y3380405D02*
G01*
X3015794Y3337505D01*
X3015794Y3380405D02*
G01*
X3034194Y3380405D01*
X3040394Y3378404D01*
X3042394Y3376305D01*
X3044494Y3372204D01*
X3044494Y3366104D01*
X3042394Y3362004D01*
X3040394Y3360005D01*
X3034194Y3357905D01*
X3015794Y3357905D01*
X3057995Y3380405D02*
G01*
X3057995Y3337505D01*
X2270000Y4310400D02*
G01*
X2270000Y4267500D01*
X2298599Y4310400D02*
G01*
X2298599Y4267500D01*
X2270000Y4290000D02*
G01*
X2298599Y4290000D01*
X2312100Y4310400D02*
G01*
X2312100Y4267500D01*
X2312100Y4310400D02*
G01*
X2338699Y4310400D01*
X2312100Y4290000D02*
G01*
X2328500Y4290000D01*
X2312100Y4267500D02*
G01*
X2338699Y4267500D01*
X2368599Y4310400D02*
G01*
X2352200Y4267500D01*
X2368599Y4310400D02*
G01*
X2385000Y4267500D01*
X2358400Y4281799D02*
G01*
X2378800Y4281799D01*
X2398500Y4310400D02*
G01*
X2398500Y4267500D01*
X2398500Y4310400D02*
G01*
X2412799Y4310400D01*
X2418900Y4308400D01*
X2423000Y4304299D01*
X2425000Y4300200D01*
X2427100Y4294000D01*
X2427100Y4283800D01*
X2425000Y4277700D01*
X2423000Y4273600D01*
X2418900Y4269499D01*
X2412799Y4267500D01*
X2398500Y4267500D01*
X2440600Y4310400D02*
G01*
X2440600Y4267500D01*
X2440600Y4310400D02*
G01*
X2467200Y4310400D01*
X2440600Y4290000D02*
G01*
X2456999Y4290000D01*
X2440600Y4267500D02*
G01*
X2467200Y4267500D01*
X2480699Y4310400D02*
G01*
X2480699Y4267500D01*
X2480699Y4310400D02*
G01*
X2499099Y4310400D01*
X2505200Y4308400D01*
X2507299Y4306300D01*
X2509300Y4302199D01*
X2509300Y4298099D01*
X2507299Y4294000D01*
X2505200Y4291999D01*
X2499099Y4290000D01*
X2480699Y4290000D01*
X2495000Y4290000D02*
G01*
X2509300Y4267500D01*
X2522799Y4253099D02*
G01*
X2559600Y4253099D01*
X2573100Y4310400D02*
G01*
X2573100Y4267500D01*
X2573100Y4310400D02*
G01*
X2591499Y4310400D01*
X2597700Y4308400D01*
X2599700Y4306300D01*
X2601800Y4302199D01*
X2601800Y4298099D01*
X2599700Y4294000D01*
X2597700Y4291999D01*
X2591499Y4290000D01*
X2573100Y4290000D01*
X2587500Y4290000D02*
G01*
X2601800Y4267500D01*
X2615299Y4310400D02*
G01*
X2615299Y4267500D01*
X2615299Y4310400D02*
G01*
X2641899Y4310400D01*
X2615299Y4290000D02*
G01*
X2631599Y4290000D01*
X2615299Y4267500D02*
G01*
X2641899Y4267500D01*
X2683999Y4304299D02*
G01*
X2679899Y4308400D01*
X2673800Y4310400D01*
X2665600Y4310400D01*
X2659499Y4308400D01*
X2655399Y4304299D01*
X2655399Y4300200D01*
X2657399Y4296100D01*
X2659499Y4294000D01*
X2663500Y4291999D01*
X2675799Y4287900D01*
X2679899Y4285900D01*
X2681999Y4283800D01*
X2683999Y4279699D01*
X2683999Y4273600D01*
X2679899Y4269499D01*
X2673800Y4267500D01*
X2665600Y4267500D01*
X2659499Y4269499D01*
X2655399Y4273600D01*
X2697500Y4310400D02*
G01*
X2697500Y4267500D01*
X2697500Y4310400D02*
G01*
X2715900Y4310400D01*
X2721999Y4308400D01*
X2724099Y4306300D01*
X2726099Y4302199D01*
X2726099Y4296100D01*
X2724099Y4291999D01*
X2721999Y4290000D01*
X2715900Y4287900D01*
X2697500Y4287900D01*
X2739600Y4310400D02*
G01*
X2739600Y4267500D01*
X2739600Y4310400D02*
G01*
X2766199Y4310400D01*
X2739600Y4290000D02*
G01*
X2756000Y4290000D01*
X2739600Y4267500D02*
G01*
X2766199Y4267500D01*
X2796099Y4310400D02*
G01*
X2779700Y4267500D01*
X2796099Y4310400D02*
G01*
X2812500Y4267500D01*
X2785900Y4281799D02*
G01*
X2806300Y4281799D01*
X2826000Y4310400D02*
G01*
X2826000Y4267500D01*
X2854600Y4310400D02*
G01*
X2826000Y4281799D01*
X2836199Y4291999D02*
G01*
X2854600Y4267500D01*
X2868100Y4310400D02*
G01*
X2868100Y4267500D01*
X2868100Y4310400D02*
G01*
X2894700Y4310400D01*
X2868100Y4290000D02*
G01*
X2884499Y4290000D01*
X2868100Y4267500D02*
G01*
X2894700Y4267500D01*
X2908199Y4310400D02*
G01*
X2908199Y4267500D01*
X2908199Y4310400D02*
G01*
X2926599Y4310400D01*
X2932700Y4308400D01*
X2934799Y4306300D01*
X2936800Y4302199D01*
X2936800Y4298099D01*
X2934799Y4294000D01*
X2932700Y4291999D01*
X2926599Y4290000D01*
X2908199Y4290000D01*
X2922500Y4290000D02*
G01*
X2936800Y4267500D01*
G36*
X2618800Y3517200D02*
G01*
X2603800Y3497200D01*
X2633800Y3497200D01*
G37*
D11*
X1478036Y3870668D02*
G01*
X1480353Y3870668D01*
X1480353Y3815943D01*
X1513424Y3815943D01*
X1513424Y3772636D01*
X1349600Y3280906D02*
G01*
X1331141Y3280906D01*
X1331141Y3870668D01*
X1349600Y3870668D01*
X1519723Y3373818D02*
G01*
X1519723Y3336810D01*
X1482322Y3336810D01*
X1478386Y3332874D01*
X1478386Y3280906D01*
X1478036Y3280906D01*
X2530415Y3295194D02*
G01*
X3339606Y3295194D01*
X3339534Y3295194D02*
G01*
X3339534Y3328616D01*
X3339620Y3460988D02*
G01*
X3339620Y3480194D01*
X3230529Y3480194D01*
X2530415Y3295194D02*
G01*
X2530415Y3328616D01*
X2639467Y3480194D02*
G01*
X2530378Y3480194D01*
X2530378Y3460988D01*
D12*
X1270000Y4255000D02*
G01*
X1270000Y4055000D01*
X3270000Y4055000D01*
X3270000Y4255000D01*
X1270000Y4255000D01*
D11*
G75*
G01
X1541020Y3789950D02*
G03X1541020Y3789950I-7910J0D01*
M02*
