G04 Layer: BottomLayer*
G04 EasyEDA v6.5.57, 2026-08-20 12:42:06*
G04 3863881593864a92abf5d593ca69eb64,3ad32a43805b4f92aed64cbcf9809e57,10*
G04 Gerber Generator version 0.2*
G04 Scale: 100 percent, Rotated: No, Reflected: No *
G04 Dimensions in inches *
G04 leading zeros omitted , absolute positions ,3 integer and 6 decimal *
%FSLAX36Y36*%
%MOIN*%

%ADD10C,0.0100*%
%ADD11R,0.0620X0.0620*%
%ADD12C,0.0620*%
%ADD13C,0.0244*%
%ADD14C,0.0131*%

%LPD*%
D10*
X3156445Y3585000D02*
G01*
X2605000Y3585000D01*
X2605000Y3650000D01*
X1615000Y3650000D01*
X2520000Y4105000D02*
G01*
X2575000Y4160000D01*
X2675000Y4160000D01*
X2720000Y4205000D01*
X2520000Y4105000D02*
G01*
X2470000Y4155000D01*
X2280000Y4155000D01*
X2265000Y4160000D01*
X2220000Y4205000D01*
X1920000Y4205000D02*
G01*
X1865000Y4150000D01*
X1765000Y4150000D01*
X1720000Y4105000D01*
X2220000Y4205000D02*
G01*
X2165000Y4150000D01*
X1975000Y4150000D01*
X1920000Y4205000D01*
X1720000Y4105000D02*
G01*
X1665000Y4160000D01*
X1565000Y4160000D01*
X1520000Y4205000D01*
X1520000Y3990000D02*
G01*
X3100000Y3990000D01*
X3170000Y4065799D02*
G01*
X3170000Y4155000D01*
X3120000Y4205000D01*
X3120000Y4015000D02*
G01*
X1510000Y4015000D01*
X1420000Y4105000D01*
X2420000Y3940000D02*
G01*
X3055000Y3940000D01*
X3025000Y3915000D02*
G01*
X1940000Y3915000D01*
X1905000Y3950000D01*
X1430000Y3950000D01*
X1370000Y4010000D01*
X1370000Y4155000D01*
X1320000Y4205000D01*
X2220000Y3965000D02*
G01*
X3075000Y3965000D01*
X3210000Y3855000D02*
G01*
X1885000Y3855000D01*
X1870000Y3870000D01*
X2720000Y4205000D02*
G01*
X2770000Y4155000D01*
X2870000Y4155000D01*
X2920000Y4205000D01*
X3155000Y3985000D02*
G01*
X3155000Y4050801D01*
X3170000Y4065801D01*
X3005000Y3880000D02*
G01*
X1930000Y3880000D01*
X1885000Y3925000D01*
X1615000Y3925000D01*
D11*
G01*
X1320000Y4105000D03*
D12*
G01*
X1320000Y4205000D03*
G01*
X1420000Y4105000D03*
G01*
X1420000Y4205000D03*
G01*
X1520000Y4105000D03*
G01*
X1520000Y4205000D03*
G01*
X1620000Y4105000D03*
G01*
X1620000Y4205000D03*
G01*
X1720000Y4105000D03*
G01*
X1720000Y4205000D03*
G01*
X1820000Y4105000D03*
G01*
X1820000Y4205000D03*
G01*
X1920000Y4105000D03*
G01*
X1920000Y4205000D03*
G01*
X2020000Y4105000D03*
G01*
X2020000Y4205000D03*
G01*
X2120000Y4105000D03*
G01*
X2120000Y4205000D03*
G01*
X2220000Y4105000D03*
G01*
X2220000Y4205000D03*
G01*
X2320000Y4105000D03*
G01*
X2320000Y4205000D03*
G01*
X2420000Y4105000D03*
G01*
X2420000Y4205000D03*
G01*
X2520000Y4105000D03*
G01*
X2520000Y4205000D03*
G01*
X2620000Y4105000D03*
G01*
X2620000Y4205000D03*
G01*
X2720000Y4105000D03*
G01*
X2720000Y4205000D03*
G01*
X2820000Y4105000D03*
G01*
X2820000Y4205000D03*
G01*
X2920000Y4105000D03*
G01*
X2920000Y4205000D03*
G01*
X3020000Y4105000D03*
G01*
X3020000Y4205000D03*
G01*
X3120000Y4105000D03*
G01*
X3120000Y4205000D03*
G01*
X3220000Y4105000D03*
G01*
X3220000Y4205000D03*
D13*
G01*
X3210000Y3855000D03*
G01*
X1870000Y3870000D03*
G01*
X3120000Y4015000D03*
G01*
X3095000Y3990000D03*
G01*
X1520000Y3990000D03*
G01*
X3075000Y3965000D03*
G01*
X2220000Y3965000D03*
G01*
X3055000Y3940000D03*
G01*
X2420000Y3940000D03*
G01*
X3155000Y3985000D03*
G01*
X1615000Y3925000D03*
G01*
X3025000Y3915000D03*
G01*
X3156450Y3585000D03*
G01*
X1615000Y3650000D03*
G01*
X3005000Y3880000D03*
M02*
